<?xml version="1.0" encoding="utf-8"?>
<!-- Generator: Adobe Illustrator 19.0.0, SVG Export Plug-In . SVG Version: 6.00 Build 0)  -->
<svg version="1.1" xmlns="http://www.w3.org/2000/svg" xmlns:xlink="http://www.w3.org/1999/xlink" x="0px" y="0px"
	 viewBox="0 0 600 600" style="enable-background:new 0 0 600 600;" xml:space="preserve">
<style type="text/css">
	.st0{fill:#A89988;}
	.st1{opacity:0.1;enable-background:new    ;}
	.st2{fill:#FFFFFF;}
	.st3{fill:#E5E5E5;}
	.st4{fill:#445258;}
	.st5{fill:#FFD366;}
	.st6{fill:#6D49D1;}
	.st7{fill:#53389E;}
	.st8{fill:#2D2D2C;}
	.st9{fill:#D8D8D8;}
</style>
<g id="Plume">
</g>
<g id="Calque_7">
	<g id="XMLID_10_">
		<circle id="XMLID_55_" class="st0" cx="300" cy="300" r="300"/>
		<path id="XMLID_54_" class="st1" d="M495.8,72.7c45.3,52.5,72.7,121,72.7,195.8c0,165.7-134.3,300-300,300
			c-74.8,0-143.3-27.4-195.8-72.7C127.7,559.6,209.1,600,300,600c165.7,0,300-134.3,300-300C600,209.1,559.6,127.7,495.8,72.7z"/>
		<circle id="XMLID_53_" class="st2" cx="300" cy="300" r="218.5"/>
		<circle id="XMLID_52_" class="st3" cx="300" cy="300" r="103.5"/>
		<path id="XMLID_50_" class="st1" d="M300,81.5C179.3,81.5,81.5,179.3,81.5,300c0,66.5,29.7,126.1,76.6,166.1
			c-32.6-38.2-52.3-87.7-52.3-141.9c0-120.7,97.8-218.5,218.5-218.5c54.1,0,103.7,19.7,141.9,52.3C426.1,111.3,366.5,81.5,300,81.5z
			"/>
		<g id="XMLID_42_">
			<circle id="XMLID_47_" class="st4" cx="300" cy="300" r="26.3"/>
			<path id="XMLID_46_" class="st4" d="M400.8,191.2c-3.4-3.4-3.4-9,0-12.4l19.1-19.1c3.4-3.4,9-3.4,12.4,0c3.4,3.4,3.4,9,0,12.4
				l-19.1,19.1C409.8,194.6,404.2,194.6,400.8,191.2z"/>
			<path id="XMLID_45_" class="st4" d="M178.8,199.2l-19.1-19.1c-3.4-3.4-3.4-9,0-12.4c3.4-3.4,9-3.4,12.4,0l19.1,19.1
				c3.4,3.4,3.4,9,0,12.4C187.7,202.7,182.2,202.7,178.8,199.2z"/>
			<path id="XMLID_44_" class="st4" d="M167.7,440.4c-3.4-3.4-3.4-9,0-12.4l19.1-19.1c3.4-3.4,9-3.4,12.4,0c3.4,3.4,3.4,9,0,12.4
				l-19.1,19.1C176.7,443.8,171.1,443.8,167.7,440.4z"/>
			<path id="XMLID_43_" class="st4" d="M428,432.3l-19.1-19.1c-3.4-3.4-3.4-9,0-12.4s9-3.4,12.4,0l19.1,19.1c3.4,3.4,3.4,9,0,12.4
				C437,435.8,431.4,435.8,428,432.3z"/>
		</g>
		<g id="XMLID_56_">
			<polygon id="XMLID_61_" class="st5" points="354.1,326.8 355.1,273.9 473.2,305.6 			"/>
			<path id="XMLID_60_" class="st6" d="M280.7,222.1l0.3,0v0c8-2.1,15.5-3.2,23.9-3.1c45.2,1.1,80.9,38.6,79.8,83.7
				c-1.1,45.2-38.7,80.9-83.8,79.9c-8.4-0.2-16.5-1.7-24.1-4.2l-0.1,0l-9.8-4L82,298.9"/>
			<path id="XMLID_59_" class="st7" d="M288.5,300.6c-0.5,21.9-18.7,39.3-40.6,38.8c-4.1-0.1-8-0.8-11.7-2l0,0l-4.7-1.9l-89.9-36.7
				l89.6-34.6c2.2-1.1,4.2-2,6.6-2.7l-0.3,0l0,0c3.6-1.1,8-1.6,12-1.5C271.4,260.4,289,278.6,288.5,300.6z"/>
			<circle id="XMLID_58_" class="st8" cx="345.4" cy="266.3" r="11.3"/>
			<circle id="XMLID_57_" class="st9" cx="348.9" cy="266.7" r="5.4"/>
		</g>
	</g>
</g>
<g id="Compass">
</g>
</svg>
