<?xml version="1.0" encoding="utf-8"?>
<!-- Generator: Adobe Illustrator 19.0.0, SVG Export Plug-In . SVG Version: 6.00 Build 0)  -->
<svg version="1.1" id="Calque_1" xmlns="http://www.w3.org/2000/svg" xmlns:xlink="http://www.w3.org/1999/xlink" x="0px" y="0px"
	 viewBox="420 261 1440 80" style="enable-background:new 420 261 1440 80;" xml:space="preserve">
<style type="text/css">
	.st0{fill:#F7F3F1;}
	.st1{fill:#FFFEF9;}
	.st2{fill:#E7E1DC;}
</style>
<title>wave-cream</title>
<desc>Created with Sketch.</desc>
<g>
	<g id="Symbols">
		<g id="wave-cream">
			<g id="Group-2">
				<g id="Group">
					<path id="Rectangle-2-Copy" class="st0" d="M420,313c0,0,153-52,378.5-52s457.5,52,626.5,52s435-52,435-52v80H420V313z"/>
					<path id="Rectangle-2-Copy-2" class="st1" d="M420,339c0,0,153-52,378.5-52s457.5,52,626.5,52s435-52,435-52v54H420V339z"/>
				</g>
			</g>
		</g>
		<g id="Group-2_1_">
			<g id="Group_1_">
				<path id="Rectangle-2-Copy_1_" class="st2" d="M420,313c0,0,153-52,378.5-52s457.5,52,626.5,52s435-52,435-52v80H420V313z"/>
				<path id="Rectangle-2-Copy-2_1_" class="st0" d="M420,339c0,0,153-52,378.5-52s457.5,52,626.5,52s435-52,435-52v54H420V339z"/>
			</g>
		</g>
	</g>
</g>
</svg>
