<?xml version="1.0" encoding="utf-8"?>
<!-- Generator: Adobe Illustrator 19.0.0, SVG Export Plug-In . SVG Version: 6.00 Build 0)  -->
<svg version="1.1" id="Calque_1" xmlns="http://www.w3.org/2000/svg" xmlns:xlink="http://www.w3.org/1999/xlink" x="0px" y="0px"
	 viewBox="0 0 185 158" style="enable-background:new 0 0 185 158;" xml:space="preserve">
<style type="text/css">
	.st0{fill:#6D49D1;}
	.st1{fill:#53389E;}
	.st2{fill:#FFD366;}
	.st3{font-family:'Roboto-Bold';}
	.st4{font-size:24px;}
	.st5{opacity:0.1;}
</style>
<g id="XMLID_1_">
	<path id="XMLID_123_" class="st0" d="M17.3,102c0,0,1.7-6.9-4.1-12.9c-5.8-6-13-6-13-6s-1.8,8.1,3.9,13.9
		C9.8,102.9,17.3,102,17.3,102z"/>
	<path id="XMLID_122_" class="st0" d="M30,100.7c0,0,6.7-3.7,7.9-11.7c1.2-8-5-13.6-5-13.6s-5.9,4.2-7.1,12.4
		C24.6,96.1,30,100.7,30,100.7z"/>
	<path id="XMLID_121_" class="st0" d="M40.2,120.8c0,0,6.2-4.5,6.3-12.6c0.1-8.1-6.7-12.8-6.7-12.8s-5.3,4.9-5.4,13.2
		C34.3,116.9,40.2,120.8,40.2,120.8z"/>
	<path id="XMLID_120_" class="st0" d="M55.4,132.4c0,0,5.7-5.1,5.1-13.1c-0.6-8.1-7.9-12.1-7.9-12.1s-4.8,5.4-4.1,13.7
		C49.1,129.1,55.4,132.4,55.4,132.4z"/>
	<path id="XMLID_119_" class="st0" d="M74.4,142.3c0,0,4-6.5,1.1-14.1c-2.9-7.5-11-9.4-11-9.4s-3,6.6,0,14.3
		C67.5,141,74.4,142.3,74.4,142.3z"/>
	<path id="XMLID_118_" class="st0" d="M20.1,84.3c0,0,5.2-4.8,3.7-13c-1.5-8.2-7.5-12.2-7.5-12.2s-6,5.8-4.5,13.7
		C13.2,80.9,20.1,84.3,20.1,84.3z"/>
	<path id="XMLID_117_" class="st0" d="M24.4,117.7c0,0-0.4-7.1-7.7-11.1c-7.3-4-14.2-1.9-14.2-1.9s0.7,8.3,7.8,12.2
		C17.4,120.8,24.4,117.7,24.4,117.7z"/>
	<path id="XMLID_116_" class="st0" d="M36.7,131.4c0,0-2-6.8-10-9.1c-8-2.3-14.2,1.3-14.2,1.3s2.5,7.9,10.3,10.1
		C30.5,136,36.7,131.4,36.7,131.4z"/>
	<path id="XMLID_115_" class="st0" d="M50.4,141.2c0,0-4-5.9-12.3-5.7c-8.3,0.2-13.2,5.6-13.2,5.6s4.8,6.8,12.9,6.5
		C45.9,147.4,50.4,141.2,50.4,141.2z"/>
	<path id="XMLID_114_" class="st0" d="M56.2,145.1c-8.2,1.2-12.4,7.1-12.4,7.1s5.6,6.2,13.6,5c8-1.2,11.7-7.9,11.7-7.9
		S64.4,143.9,56.2,145.1z"/>
	<path id="XMLID_113_" class="st1" d="M22.8,88.4l-3.9-0.1c0,0.4-0.8,43.3,64,62.4l1.1-3.8C22.3,128.7,22.7,90,22.8,88.4z"/>
	<path id="XMLID_112_" class="st0" d="M167.1,102c0,0,7.6,0.9,13.2-4.9c5.6-5.8,3.9-13.9,3.9-13.9s-7.2,0-13,6
		C165.5,95.1,167.1,102,167.1,102z"/>
	<path id="XMLID_111_" class="st0" d="M146.6,89c1.2,8,7.9,11.7,7.9,11.7s5.4-4.6,4.2-12.8c-1.2-8.2-7.1-12.4-7.1-12.4
		S145.4,81,146.6,89z"/>
	<path id="XMLID_110_" class="st0" d="M138,108.2c0.1,8.1,6.3,12.6,6.3,12.6s5.9-3.9,5.8-12.2c-0.1-8.3-5.4-13.2-5.4-13.2
		S137.8,100.1,138,108.2z"/>
	<path id="XMLID_109_" class="st0" d="M124,119.2c-0.6,8.1,5.1,13.1,5.1,13.1s6.3-3.3,6.9-11.6c0.6-8.3-4.1-13.7-4.1-13.7
		S124.6,111.2,124,119.2z"/>
	<path id="XMLID_108_" class="st0" d="M108.9,128.3c-2.9,7.5,1.1,14.1,1.1,14.1s7-1.4,10-9.1c3-7.7,0-14.3,0-14.3
		S111.9,120.7,108.9,128.3z"/>
	<path id="XMLID_107_" class="st0" d="M172.7,72.9c1.5-8-4.5-13.7-4.5-13.7s-6,4-7.5,12.2c-1.5,8.2,3.7,13,3.7,13
		S171.2,80.9,172.7,72.9z"/>
	<path id="XMLID_106_" class="st0" d="M167.8,106.6c-7.3,4-7.7,11.1-7.7,11.1s7,3.1,14.1-0.8c7.1-3.9,7.8-12.2,7.8-12.2
		S175.1,102.6,167.8,106.6z"/>
	<path id="XMLID_61_" class="st0" d="M157.8,122.3c-8,2.3-10,9.1-10,9.1s6.1,4.6,13.9,2.4c7.8-2.2,10.3-10.1,10.3-10.1
		S165.8,120,157.8,122.3z"/>
	<path id="XMLID_59_" class="st0" d="M146.4,135.5c-8.3-0.2-12.3,5.7-12.3,5.7s4.4,6.2,12.5,6.5c8.1,0.2,12.9-6.5,12.9-6.5
		S154.7,135.8,146.4,135.5z"/>
	<path id="XMLID_12_" class="st0" d="M128.2,145.1c-8.2-1.2-12.8,4.2-12.8,4.2s3.7,6.7,11.7,7.9c8,1.2,13.6-5,13.6-5
		S136.5,146.4,128.2,145.1z"/>
	<path id="XMLID_11_" class="st1" d="M165.7,88.2l-3.9,0.1c0.1,1.6,0.5,40.3-61.2,58.4l1.1,3.8C166.4,131.6,165.7,88.7,165.7,88.2z"
		/>
	<path id="XMLID_7_" class="st2" d="M117.6,102.5h-5.4c0-5.1,0-11.8,0-13.3c-9.9-2.7-11.4-20-11.6-22.5h3.3V53.8
		c2.3-0.9,5.8-3.2,9.2-7.2l6,6.7l6.6-5.9l-5.2-5.8c5.7,1.9,15,3.6,22.2-1.5c8.1-5.7,10.9-17.9,8.3-36.3L150.5,0L92.2,0L34,0
		l-0.5,3.8c-2.6,18.4,0.2,30.6,8.3,36.3c7.3,5.1,16.6,3.4,22.2,1.5l-5.2,5.8l6.6,5.9l6-6.7c3.4,4,7,6.3,9.2,7.2v12.9h3.3
		c-0.2,2.5-1.7,19.8-11.6,22.5c0,1.6,0,8.3,0,13.3h-5.4v6.4h25.2h0.1h25.2L117.6,102.5L117.6,102.5z M123,8.8l19.8,0
		c1.3,12.5-0.5,20.8-5.1,24c-4.8,3.4-12.8,1.1-16.9-0.6C122.7,26.1,123.6,18.3,123,8.8z M46.8,32.9c-4.6-3.3-6.4-11.5-5.1-24l19.8,0
		c-0.7,9.5,0.3,17.3,2.2,23.4C59.7,34,51.7,36.3,46.8,32.9z"/>
	<text id="XMLID_2_" transform="matrix(1 0 0 1 70.8714 27.38)" class="st0 st3 st4">100</text>
	<path id="XMLID_4_" class="st5" d="M72.4,89.2c0,1.6,0,8.3,0,13.3h-5.4v6.4h25.1V0L34,0l-0.5,3.8c-2.6,18.4,0.2,30.6,8.3,36.3
		c7.3,5.1,16.6,3.4,22.2,1.5l-5.2,5.8l6.6,5.9l6-6.7c3.4,4,7,6.3,9.2,7.2v12.9h3.3C83.8,69.2,82.2,86.5,72.4,89.2z M46.8,32.9
		c-4.6-3.3-6.4-11.5-5.1-24l19.8,0c-0.7,9.5,0.3,17.3,2.2,23.4C59.7,34,51.7,36.3,46.8,32.9z"/>
</g>
</svg>
