<?xml version="1.0" encoding="utf-8"?>
<!-- Generator: Adobe Illustrator 19.0.0, SVG Export Plug-In . SVG Version: 6.00 Build 0)  -->
<svg version="1.1" id="Calque_1" xmlns="http://www.w3.org/2000/svg" xmlns:xlink="http://www.w3.org/1999/xlink" x="0px" y="0px"
	 viewBox="0 0 155 162" style="enable-background:new 0 0 155 162;" xml:space="preserve">
<style type="text/css">
	.st0{fill:#FFD366;}
	.st1{fill:#FFE15C;}
	.st2{fill:#6D49D1;}
	.st3{fill:#53389E;}
	.st4{font-family:'Roboto-Bold';}
	.st5{font-size:36px;}
	.st6{opacity:0.1;}
</style>
<path id="XMLID_9_" class="st0" d="M127.1,10.9V0.4H83.4H27.9v10.6H0.4l1.3,20.8C2.9,52.2,14.3,70.6,32,80.8l16.4,9.5
	c3.7,4.7,7.9,9,12.5,12.6l8.4,6.6l0,13.3c-16.1,2.7-29.5,13.3-36.2,27.6H22.7v11.2h109.6v-11.2H122c-6.8-14.3-20.1-24.9-36.2-27.6
	l0-13.3l8.4-6.6c4.6-3.6,8.7-7.9,12.5-12.6l16.4-9.5c17.7-10.2,29.1-28.6,30.4-49.1l1.3-20.8H127.1z M17.1,36.9L16.4,26h11.4v1.8
	c0,12.9,2.3,25.5,6.4,36.9C24.2,58.9,17.8,48.4,17.1,36.9z M137.9,36.9c-0.7,11.6-7.2,22-17.2,27.8c4.2-11.4,6.4-23.9,6.4-36.9V26
	h11.4L137.9,36.9z"/>
<path id="XMLID_8_" class="st1" d="M45.7,59c-3.7-13.2-3.8-26.9-3.9-39c0-2.8,2.2-5.1,5-5.1c2.5,0,5.1,2.2,5.1,5
	c0.1,11.4,0.2,24.4,3.6,36.3c0.7,2.7-0.8,5.5-3.5,6.2c-0.5,0.1-0.9,0.2-1.4,0.2C48.3,62.7,46.3,61.2,45.7,59z"/>
<circle id="XMLID_7_" class="st1" cx="55.6" cy="70.7" r="5.3"/>
<path id="XMLID_3_" class="st2" d="M85.8,122.9c0,0-3.4,1.8-8.4,1.8c-4.4,0-8.2-1.8-8.2-1.8c-16.1,2.7-29.5,13.3-36.2,27.6H22.7
	v11.2h109.6v-11.2H122C115.2,136.2,101.9,125.6,85.8,122.9z"/>
<rect id="XMLID_2_" x="22.7" y="150.5" class="st3" width="109.6" height="11.2"/>
<text id="XMLID_13_" transform="matrix(1 0 0 1 57.1502 51.9112)" class="st2 st4 st5">50</text>
<path id="XMLID_4_" class="st6" d="M127.1,10.9V0.4h-0.7L47.3,89.6l1.1,0.6c3.7,4.7,7.9,9,12.5,12.6l8.4,6.6l0,13.3
	c-16.1,2.7-29.5,13.3-36.2,27.6H22.7v11.2h109.6v-11.2H122c-6.8-14.3-20.1-24.9-36.2-27.6l0-13.3l8.4-6.6c4.6-3.6,8.7-7.9,12.5-12.6
	l16.4-9.5c17.7-10.2,29.1-28.6,30.4-49.1l1.3-20.8H127.1z M137.9,36.9c-0.7,11.6-7.2,22-17.2,27.8c4.2-11.4,6.4-23.9,6.4-36.9V26
	h11.4L137.9,36.9z"/>
</svg>
