<?xml version="1.0" encoding="utf-8"?>
<!-- Generator: Adobe Illustrator 19.0.0, SVG Export Plug-In . SVG Version: 6.00 Build 0)  -->
<svg version="1.1" id="Calque_1" xmlns="http://www.w3.org/2000/svg" xmlns:xlink="http://www.w3.org/1999/xlink" x="0px" y="0px"
	 viewBox="0 0 155 162" style="enable-background:new 0 0 155 162;" xml:space="preserve">
<style type="text/css">
	.st0{fill:#6D49D1;}
	.st1{fill:#FFD366;}
	.st2{fill:#53389E;}
	.st3{opacity:0.1;}
</style>
<g id="XMLID_1_">
	<polygon id="XMLID_9_" class="st0" points="90.6,1.5 78.3,22.2 65.8,1.4 12.1,1.4 51.5,66.7 51.3,67.1 101.6,72.6 144.2,1.5 	"/>
	<polygon id="XMLID_8_" class="st1" points="100.6,1.5 78.3,35.6 55.8,1.4 20.1,1.4 59.5,66.7 67.4,67.1 95,67.1 134.2,1.5 	"/>
	<polygon id="XMLID_7_" class="st2" points="106.6,1.5 78.3,45.6 47.7,1.4 28.2,1.4 69.6,66.7 67.4,67.1 86.9,67.1 126.2,1.5 	"/>
	<path id="XMLID_6_" class="st1" d="M78.5,59.8c-27.8,0-50.4,22.6-50.4,50.4c0,27.8,22.6,50.4,50.4,50.4c27.8,0,50.4-22.6,50.4-50.4
		C128.9,82.5,106.3,59.8,78.5,59.8z"/>
	<path id="XMLID_5_" class="st1" d="M78.5,149.6c-21.7,0-39.4-17.7-39.4-39.4c0-21.7,17.7-39.4,39.4-39.4
		c21.7,0,39.4,17.7,39.4,39.4C117.9,132,100.2,149.6,78.5,149.6z"/>
	<path id="XMLID_2_" class="st0" d="M78.5,154c-24.2,0-43.8-19.7-43.8-43.8c0-24.2,19.7-43.8,43.8-43.8c24.2,0,43.8,19.7,43.8,43.8
		C122.3,134.4,102.6,154,78.5,154z M78.5,75.2c-19.3,0-35,15.7-35,35c0,19.3,15.7,35,35,35c19.3,0,35-15.7,35-35
		C113.5,90.9,97.8,75.2,78.5,75.2z"/>
	<path id="XMLID_364_" class="st0" d="M85.3,106.4l-5.3,2.1l4.7,0c0,0,0,0,0,0.1l-5.1,2c0,0,2.2,0.3,4.6,0.1c-0.1,0.5-0.2,1-0.2,1.5
		c-0.6,4.7-2.4,9.2-4.6,12.7l-6.6,1.7l5.4,0c-1.5,2.1-3.1,3.6-4.6,4.4c-2.2,1.2-3.9,1-5.2,0.5c0-0.1,0-0.1,0-0.1s0.4-8.4,15.4-33.1
		c-0.2,0.3-14.2,19.2-17.5,32c0,0,0,0-0.1-0.1c-3.6-2.6-2.8-11.6,2.7-21.5c0.1-0.2,0.3-0.5,0.4-0.7c1.1,1.5,3.2,3.3,3.3,3.3
		c0,0-0.3-0.8-1.1-3.6c-0.2-0.7-0.3-1.5-0.3-2.2c6.5-8,20.3-17.8,20.4-17.9C91.9,87.9,87.6,97.9,85.3,106.4z"/>
	<path id="XMLID_4_" class="st3" d="M45.9,132.3c7.1,10.4,19.1,17.3,32.6,17.3c21.7,0,39.4-17.7,39.4-39.4c0-9.5-3.4-18.3-9.1-25.1
		L45.9,132.3z"/>
</g>
</svg>
