<?xml version="1.0" encoding="utf-8"?>
<!-- Generator: Adobe Illustrator 19.0.0, SVG Export Plug-In . SVG Version: 6.00 Build 0)  -->
<svg version="1.1" id="Capa_1" xmlns="http://www.w3.org/2000/svg" xmlns:xlink="http://www.w3.org/1999/xlink" x="0px" y="0px"
	 viewBox="-7 108.5 440 385" style="enable-background:new -7 108.5 440 385;" xml:space="preserve">
<style type="text/css">
	.st0{fill:#A89988;}
	.st1{opacity:0.1;enable-background:new    ;}
	.st2{fill:#FFFFFF;}
	.st3{fill:#E5E5E5;}
	.st4{fill:#FFD366;}
	.st5{fill:#6D49D1;}
	.st6{fill:#445258;}
	.st7{opacity:0.1;}
	.st8{opacity:0.2;enable-background:new    ;}
	.st9{opacity:0.1;fill:#FFFFFF;enable-background:new    ;}
</style>
<g>
	<g>
		<circle class="st0" cx="175.3" cy="290.7" r="182.1"/>
		<path class="st1" d="M294.2,152.8c27.5,31.9,44.1,73.4,44.1,118.9c0,100.6-81.5,182.1-182.1,182.1c-45.4,0-87-16.6-118.9-44.1
			c33.4,38.7,82.8,63.3,138,63.3c100.6,0,182.1-81.5,182.1-182.1C357.4,235.6,332.9,186.2,294.2,152.8z"/>
		<circle class="st2" cx="175.3" cy="290.7" r="132.6"/>
		<circle class="st3" cx="175.3" cy="290.7" r="62.8"/>
		<path class="st1" d="M250.6,221.2l-59,25.2c-6.4,2.7-10.7,8.9-11.2,15.8l-1.2,19.8c-6.4,1.2-11.4,6.3-12.6,12.6l-19.8,1.2
			c-7,0.4-13.1,4.7-15.8,11.2l-25.2,59c-2.2,5.1,3,10.3,8.1,8.1l59-25.2c6.4-2.7,10.7-8.9,11.2-15.8l1.2-19.8
			c6.4-1.2,11.4-6.3,12.6-12.6l19.8-1.2c7-0.4,13.1-4.7,15.8-11.2l25.2-59C260.9,224.2,255.7,219,250.6,221.2z"/>
		<path class="st1" d="M175.3,158.1c-73.2,0-132.6,59.4-132.6,132.6c0,40.4,18,76.5,46.5,100.8c-19.8-23.2-31.8-53.2-31.8-86.1
			c0-73.2,59.4-132.6,132.6-132.6c32.9,0,62.9,12,86.1,31.8C251.9,176.2,215.7,158.1,175.3,158.1z"/>
		<path class="st4" d="M243.7,214.3l-59,25.2c-6.4,2.7-10.7,8.9-11.2,15.8l-1.6,26.4c-0.4,7.1,5.4,12.9,12.5,12.5l26.4-1.6
			c7-0.4,13.1-4.7,15.8-11.2l25.2-59C254,217.3,248.8,212.1,243.7,214.3z"/>
		<path class="st5" d="M98.9,359.1l25.2-59c2.7-6.4,8.9-10.7,15.8-11.2l26.4-1.6c7.1-0.4,12.9,5.4,12.5,12.5l-1.6,26.4
			c-0.4,7-4.7,13.1-11.2,15.8l-59,25.2C101.9,369.4,96.7,364.2,98.9,359.1z"/>
		<g>
			<circle class="st6" cx="175.3" cy="290.7" r="16"/>
			<path class="st6" d="M171.9,200.8c-2.9,0-5.3-2.4-5.3-5.3V179c0-2.9,2.4-5.3,5.3-5.3s5.3,2.4,5.3,5.3v16.4
				C177.2,198.4,174.8,200.8,171.9,200.8z"/>
			<path class="st6" d="M80,299.5H63.6c-2.9,0-5.3-2.4-5.3-5.3c0-2.9,2.4-5.3,5.3-5.3H80c2.9,0,5.3,2.4,5.3,5.3
				C85.4,297.2,83,299.5,80,299.5z"/>
			<path class="st6" d="M178.8,407.8c-2.9,0-5.3-2.4-5.3-5.3V386c0-2.9,2.4-5.3,5.3-5.3c2.9,0,5.3,2.4,5.3,5.3v16.4
				C184.1,405.4,181.7,407.8,178.8,407.8z"/>
			<path class="st6" d="M287.1,292.6h-16.4c-2.9,0-5.3-2.4-5.3-5.3c0-2.9,2.4-5.3,5.3-5.3h16.4c2.9,0,5.3,2.4,5.3,5.3
				S290,292.6,287.1,292.6z"/>
		</g>
		<g class="st7">
			<path d="M200,271.4c-1.4,0-2.7-0.5-3.8-1.6c-2.1-2.1-2.1-5.5,0-7.5l19.1-19.1c2.1-2.1,5.5-2.1,7.5,0c2.1,2.1,2.1,5.5,0,7.5
				l-19.1,19.1C202.7,270.9,201.3,271.4,200,271.4z"/>
			<path d="M131.6,339.8c-1.4,0-2.7-0.5-3.8-1.6c-2.1-2.1-2.1-5.5,0-7.5l19.1-19.1c2.1-2.1,5.5-2.1,7.5,0c2.1,2.1,2.1,5.5,0,7.5
				l-19.1,19.1C134.3,339.3,133,339.8,131.6,339.8z"/>
		</g>
	</g>
	<g>
		<circle class="st6" cx="249.1" cy="315.2" r="21.5"/>
		<path class="st1" d="M249.1,293.6c-1.2,0-2.4,0.1-3.6,0.3c10.2,1.7,17.9,10.6,17.9,21.2s-7.7,19.5-17.9,21.2
			c1.2,0.2,2.4,0.3,3.6,0.3c11.9,0,21.5-9.6,21.5-21.5S261,293.6,249.1,293.6z"/>
		<path class="st6" d="M419.6,332H208.8c-7.3,0-13.2,5.9-13.2,13.2v135.1c0,7.3,5.9,13.2,13.2,13.2h210.8c7.3,0,13.2-5.9,13.2-13.2
			V345.2C432.8,337.9,426.9,332,419.6,332z"/>
		<path class="st5" d="M310.7,426.4c-34.1-20.1-84.6-10.2-115,2.2v51.6c0,7.3,5.9,13.2,13.2,13.2h210.8c7.3,0,13.2-5.9,13.2-13.2
			V429C395.1,442.6,345.8,447.2,310.7,426.4z"/>
		<circle class="st1" cx="360" cy="427.8" r="55.8"/>
		<circle class="st2" cx="355.1" cy="422.9" r="55.8"/>
		<circle class="st6" cx="355.1" cy="422.9" r="41.1"/>
		<path class="st1" d="M355.1,381.9c-22.7,0-41.1,18.4-41.1,41.1c0,12.1,5.3,23,13.6,30.5c-6.5-7.3-10.5-16.9-10.5-27.5
			c0-22.7,18.4-41.1,41.1-41.1c10.6,0,20.2,4,27.5,10.5C378.1,387.1,367.2,381.9,355.1,381.9z"/>
		<circle class="st8" cx="355.1" cy="422.9" r="20.2"/>
		<path class="st2" d="M283.4,369.4h-35.9c-3.3,0-5.9-2.7-5.9-5.9v-10.1c0-3.3,2.7-5.9,5.9-5.9h35.9c3.3,0,5.9,2.7,5.9,5.9v10.1
			C289.3,366.7,286.7,369.4,283.4,369.4z"/>
		<path class="st3" d="M274,315.2h-49.8c-1.6,0-2.9,1.3-2.9,2.9V332H277v-13.9C277,316.5,275.6,315.2,274,315.2z"/>
		<path class="st1" d="M274,315.2h-9.3c1.6,0,2.9,1.3,2.9,2.9V332h9.3v-13.9C277,316.5,275.6,315.2,274,315.2z"/>
		<circle class="st2" cx="370" cy="410.4" r="10.2"/>
		<g class="st7">
			<rect x="269.9" y="347.4" width="6.9" height="22"/>
			<rect x="254.1" y="347.4" width="6.9" height="22"/>
		</g>
		<g>
			<path class="st5" d="M283.4,390.1h-36.6c-1.9,0-3.5-1.6-3.5-3.5s1.6-3.5,3.5-3.5h36.6c1.9,0,3.5,1.6,3.5,3.5
				C286.9,388.6,285.3,390.1,283.4,390.1z"/>
			<path class="st5" d="M267.7,402.4h-20.9c-1.9,0-3.5-1.6-3.5-3.5c0-1.9,1.6-3.5,3.5-3.5h20.9c1.9,0,3.5,1.6,3.5,3.5
				C271.1,400.8,269.6,402.4,267.7,402.4z"/>
			<path class="st5" d="M387.8,360.3h26.7c2,0,3.6-1.6,3.6-3.6V351c0-2-1.6-3.6-3.6-3.6h-26.7c-2,0-3.6,1.6-3.6,3.6v5.6
				C384.2,358.6,385.8,360.3,387.8,360.3z"/>
		</g>
		<path class="st1" d="M216.1,332c5.5,0,10,4.5,10,10v141.4c0,5.5-4.5,10-10,10h21.7V332H216.1z"/>
		<path class="st9" d="M208.8,332c-7.3,0-13.2,5.9-13.2,13.2v135.1c0,7.3,5.9,13.2,13.2,13.2h7.3c5.5,0,10-4.5,10-10V342
			c0-5.5-4.5-10-10-10H208.8z"/>
		<g class="st7">
			<rect x="256.9" y="315.2" width="6.9" height="16.8"/>
			<rect x="234.4" y="315.2" width="6.9" height="16.8"/>
		</g>
		<path class="st1" d="M419.6,332h-12.9c6.4,0.9,11.3,6.4,11.3,13v135.1c0,7.3-5.9,13.2-13.2,13.2l14.7,0.1
			c7.3,0,13.2-5.9,13.2-13.2V345.2C432.8,337.9,426.9,332,419.6,332z"/>
	</g>
</g>
</svg>
