<?xml version="1.0" encoding="utf-8"?>
<!-- Generator: Adobe Illustrator 19.0.0, SVG Export Plug-In . SVG Version: 6.00 Build 0)  -->
<svg version="1.1" id="Capa_1" xmlns="http://www.w3.org/2000/svg" xmlns:xlink="http://www.w3.org/1999/xlink" x="0px" y="0px"
	 viewBox="-43 135.5 512 330.5" style="enable-background:new -43 135.5 512 330.5;" xml:space="preserve">
<style type="text/css">
	.st0{fill:#E7E1DC;}
	.st1{opacity:0.1;enable-background:new    ;}
	.st2{fill:#445258;}
	.st3{fill:#FFFEF9;}
	.st4{fill:#DED5CD;}
	.st5{fill:#A89988;}
	.st6{fill:#FFD366;}
	.st7{fill:#8C8C8C;}
	.st8{fill:#6D49D1;}
	.st9{opacity:0.2;enable-background:new    ;}
</style>
<path class="st0" d="M453.1,415.1H-27.1c-8.8,0-15.9,7.1-15.9,15.9v19.1c0,8.8,7.1,15.9,15.9,15.9h480.2c8.8,0,15.9-7.1,15.9-15.9
	V431C469,422.2,461.9,415.1,453.1,415.1z"/>
<path class="st1" d="M453.1,415.1h-4.6c0.9,1.9,1.4,3.9,1.4,6.2v16.9c0,7.8-6.3,14.1-14.1,14.1H-38c-1.7,0-3.4-0.3-4.9-0.9
	c0.6,8.2,7.5,14.6,15.8,14.6h480.2c8.8,0,15.9-7.1,15.9-15.9V431C469,422.2,461.9,415.1,453.1,415.1z"/>
<path class="st2" d="M430.7,415.1H-4.7V164.8c0-16.2,13.2-29.4,29.4-29.4h376.6c16.2,0,29.4,13.2,29.4,29.4V415.1L430.7,415.1z"/>
<path class="st3" d="M33.8,361.8v-173c0-8.2,6.7-14.9,14.9-14.9h328.7c8.2,0,14.9,6.7,14.9,14.9v173c0,8.2-6.7,14.9-14.9,14.9H48.6
	C40.4,376.6,33.8,370,33.8,361.8z"/>
<path class="st1" d="M255.5,415.1h-85l4.3,12.2c2.8,7.9,10.2,13.2,18.6,13.2h39.2c8.4,0,15.9-5.3,18.6-13.2L255.5,415.1z"/>
<path class="st4" d="M327.1,234.8H98.9v102c0,7,5.7,12.7,12.7,12.7h202.9c7,0,12.7-5.7,12.7-12.7L327.1,234.8L327.1,234.8z"/>
<path class="st5" d="M314.5,201h-203c-7,0-12.7,5.7-12.7,12.7v21.2H327v-21.2C327.1,206.7,321.5,201,314.5,201z"/>
<rect x="-4.7" y="397" class="st1" width="435.4" height="18"/>
<circle class="st6" cx="121.9" cy="217.5" r="7.5"/>
<circle class="st6" cx="146.8" cy="217.5" r="7.5"/>
<circle class="st3" cx="171.6" cy="217.5" r="7.5"/>
<path class="st2" d="M364.6,337.6c3.5-2,4.7-6.5,2.7-10.1L352,300.9l12.6-2.3c5.6-1,7.1-8.4,2.3-11.5l-49.2-32.5
	c-6-4-14,0.6-13.6,7.8l3.5,58.9c0.3,5.7,7.4,8.1,11.1,3.7l8.3-9.8l15.3,26.6c2,3.5,6.5,4.7,10.1,2.7L364.6,337.6z"/>
<path class="st7" d="M258.3,268.2h-89c-4.1,0-7.5-3.4-7.5-7.5c0-4.1,3.4-7.5,7.5-7.5h89c4.1,0,7.5,3.4,7.5,7.5
	C265.8,264.8,262.5,268.2,258.3,268.2z"/>
<path class="st7" d="M258.3,299.8h-89c-4.1,0-7.5-3.4-7.5-7.5c0-4.1,3.4-7.5,7.5-7.5h89c4.1,0,7.5,3.4,7.5,7.5
	C265.8,296.3,262.5,299.8,258.3,299.8z"/>
<path class="st8" d="M226.9,330.8h-27.8c-4.1,0-7.5-3.4-7.5-7.5c0-4.1,3.4-7.5,7.5-7.5h27.8c4.1,0,7.5,3.4,7.5,7.5
	C234.4,327.3,231.1,330.8,226.9,330.8z"/>
<circle class="st9" cx="146.8" cy="217.5" r="7.5"/>
</svg>
