<?xml version="1.0" encoding="UTF-8"?>
<svg width="375px" height="59px" viewBox="0 0 375 59" version="1.1" xmlns="http://www.w3.org/2000/svg" xmlns:xlink="http://www.w3.org/1999/xlink">
    <!-- Generator: Sketch 43.1 (39012) - http://www.bohemiancoding.com/sketch -->
    <title>Page 1</title>
    <desc>Created with Sketch.</desc>
    <defs></defs>
    <g id="Symbols" stroke="none" stroke-width="1" fill="none" fill-rule="evenodd">
        <g id="Page-1">
            <g>
                <path d="M375,0 L375,57.875 C329.3125,33.25625 262.475,17.73125 188.0125,17.73125 C113.3,17.73125 46.2625,33.3625 0.56875,58.125 C0.375,58.225 0.1875,58.33125 0,58.43125 L0,0 L375,0 Z" id="Fill-1" fill="#FFFEF9"></path>
                <path d="M375,57.875 C329.3125,33.25625 262.475,17.73125 188.0125,17.73125 C113.3,17.73125 46.2625,33.3625 0.56875,58.125 C0.375,58.225 0.1875,58.33125 0,58.43125 C0.1125,58.325 0.23125,58.225 0.34375,58.125 C29.525,31.7 79.99375,12.0875 140.03125,5.1875 C143.575,4.78125 147.15625,4.41875 150.76875,4.1 C153.175,3.89375 155.59375,3.7 158.025,3.53125 C160.4625,3.35625 162.90625,3.20625 165.3625,3.08125 C170.28125,2.81875 175.25,2.65 180.25625,2.5625 C182.7625,2.51875 185.28125,2.49375 187.80625,2.49375 C188.225,2.49375 188.64375,2.49375 189.0625,2.5 C268.9375,2.725 338.4625,25 375,57.875" id="Fill-3" fill="#E7E7E7"></path>
            </g>
        </g>
    </g>
</svg>