<?xml version="1.0" encoding="utf-8"?>
<!-- Generator: Adobe Illustrator 19.0.0, SVG Export Plug-In . SVG Version: 6.00 Build 0)  -->
<svg version="1.1" id="Calque_1" xmlns="http://www.w3.org/2000/svg" xmlns:xlink="http://www.w3.org/1999/xlink" x="0px" y="0px"
	 viewBox="0 0 266 385" style="enable-background:new 0 0 266 385;" xml:space="preserve">
<style type="text/css">
	.st0{fill:#FFD366;}
	.st1{fill:#53389E;}
	.st2{fill:#6D49D1;}
	.st3{opacity:0.1;}
	.st4{fill:#FFE266;}
	.st5{fill:#CFF1F4;fill-opacity:0.3;}
</style>
<g id="XMLID_1_">
	<path id="XMLID_12_" class="st0" d="M228.4,385.1c0-15.6-12.6-28.2-28.2-28.2h-1.6v-80.2l-41.8-39.2h-11.4v-21.3l69.7,36.7
		l-15.7-91.5l66.5-64.8L174,83.2L132.9,0L91.9,83.2L0,96.6l66.5,64.8l-15.7,91.5l69.9-36.7v21.4h-11.4l-41.8,39.2v80.2h-1.6
		c-15.6,0-28.2,12.6-28.2,28.2H228.4z"/>
	<path id="XMLID_11_" class="st1" d="M109.3,237.5h47.5l41.8,39.2v80.2c0,0,13.9-1.4,23,9.4c9.4,11.2,6.8,18.8,6.8,18.8H37.6
		c0,0-1-11,8.9-21c9.3-9.3,20.9-7.2,20.9-7.2v-80.2L109.3,237.5z"/>
	<g id="XMLID_117_">
		<polygon id="XMLID_10_" class="st2" points="198.6,276.6 198.6,276.5 156.8,237.3 109.3,237.3 67.4,276.5 67.4,276.6 		"/>
		<path id="XMLID_9_" class="st2" d="M221.6,366.1c-9.1-10.8-23-9.4-23-9.4v-0.1H67.4v0.1c0,0-0.4-0.1-1.1-0.1h-3.6
			c-4.2,0.3-10.6,1.8-16.2,7.3c-9.9,9.9-8.9,21-8.9,21h190.8C228.4,384.8,231.1,377.3,221.6,366.1z"/>
	</g>
	<polygon id="XMLID_8_" class="st3" points="132.9,0 132.9,137.2 91.9,83.2 	"/>
	<polygon id="XMLID_7_" class="st3" points="0,96.6 132.9,137.2 66.5,161.4 	"/>
	<polygon id="XMLID_6_" class="st3" points="50.8,252.9 132.9,137.2 132.9,211.9 	"/>
	<polygon id="XMLID_5_" class="st3" points="132.9,137.2 265.9,96.6 174,83.2 	"/>
	<polygon id="XMLID_4_" class="st3" points="199.4,161.4 215.1,252.9 132.9,137.2 	"/>
	<path id="XMLID_3_" class="st4" d="M67.4,276.8"/>
	<path id="XMLID_2_" class="st5" d="M132.6,237.2h-23.3l-41.8,39.3v80.3c0,0-11.6-2.1-20.9,7.2c-9.9,10-8.9,21-8.9,21h95V237.2z"/>
</g>
</svg>
