<?xml version="1.0" encoding="utf-8"?>
<!-- Generator: Adobe Illustrator 19.0.0, SVG Export Plug-In . SVG Version: 6.00 Build 0)  -->
<svg version="1.1" id="Calque_1" xmlns="http://www.w3.org/2000/svg" xmlns:xlink="http://www.w3.org/1999/xlink" x="0px" y="0px"
	 viewBox="0 0 175 170" style="enable-background:new 0 0 175 170;" xml:space="preserve">
<style type="text/css">
	.st0{fill:#FFD366;}
	.st1{opacity:0.1;}
	.st2{fill:#6D49D1;}
	.st3{fill:#A89988;}
	.st4{opacity:0.1;enable-background:new    ;}
	.st5{fill:#E5BE5C;}
	.st6{fill:#897E74;}
	.st7{fill:#978A7A;}
	.st8{fill:#4B3F4E;}
	.st9{fill:#FFFFFF;}
	.st10{font-family:'SavoyeLetPlain';}
	.st11{font-size:36px;}
</style>
<g id="XMLID_1_">
	<path id="XMLID_10_" class="st0" d="M91.1,108.7V7.4H69.3c0,0-0.9,18.5-18.7,27.5c-17.8,9-25.1,9.9-25.1,9.9s-5.1,42.4,7,62.9
		C44.5,128.3,91.1,108.7,91.1,108.7z"/>
	<path id="XMLID_9_" class="st1" d="M91.1,61V7.4H69.3c0,0-0.9,18.5-18.7,27.5c-17.8,9-25.1,9.9-25.1,9.9s-2.8,23.4,0.7,43.8
		L91.1,61z"/>
	<path id="XMLID_8_" class="st2" d="M87.1,166.9c10.1-0.6,26.8-11.3,35.4-18.4h-71C60.1,155.6,77,166.3,87.1,166.9z"/>
	<path id="XMLID_7_" class="st2" d="M154.1,37.3c-2,0.3-3.9,0.5-6,0.5c-20.9,0-37.8-16.9-37.8-37.8H63.8c0,20.9-16.9,37.8-37.8,37.8
		c-2,0-4-0.2-6-0.5c-1.3,7.7-1.9,16.9-1.9,28c0,9.9,3.4,27,7,38.3h11.5c-3.8-11-7.5-28.2-7.5-38.3c0-6,0.2-11.6,0.6-16.6
		c21.8-1.7,39.6-17.6,44-38.5c3.8,0,8.4,0,13.3,0v93.3h63.5c3.6-11.3,5.5-28.2,5.5-38.1C156.1,54.2,155.4,45,154.1,37.3z"/>
	<polygon id="XMLID_6_" class="st3" points="174.2,121.5 158.1,121.5 159,141.2 158.8,103.3 15.4,103.3 15.4,141.2 16,121.5 
		0,121.5 8.3,145.8 0,169.1 43.1,169.1 43.1,151.3 15.4,149.1 158.8,149.1 131.1,151.3 131.1,169.1 174.2,169.1 165.9,145.8 	"/>
	<polygon id="XMLID_5_" class="st4" points="15.4,149.1 43,149.1 43,169.1 	"/>
	<polygon id="XMLID_4_" class="st4" points="157.7,149 130.7,149 130.7,169.1 	"/>
</g>
<g id="XMLID_2_">
	<g id="XMLID_38_">
		<path id="XMLID_23_" class="st5" d="M80.2,98.4c-0.6,0-1,0.5-1,1v0.2c0,0.5-0.4,1-1,1l-9.2,0.8c-1.2,0.1-2.3,0.9-2.7,2.1l-0.6,1.8
			c-0.2,0.5,0.1,1.1,0.7,1.3c0.1,0,0.2,0.1,0.3,0.1c0.4,0,0.8-0.3,1-0.7l0.6-1.8c0.1-0.4,0.5-0.7,0.9-0.7l0.6-0.1v2.3
			c0,0.6,0.5,1,1,1s1-0.5,1-1v-2.4l1.2-0.1l1,2.9c0.1,0.4,0.6,0.7,1,0.7c0.1,0,0.2,0,0.3-0.1c0.5-0.2,0.8-0.8,0.7-1.3l-0.8-2.4
			l3.2-0.3c1.6-0.1,2.9-1.5,2.9-3.1v-0.2C81.2,98.9,80.8,98.4,80.2,98.4z"/>
		<path id="XMLID_22_" class="st5" d="M94.8,98.4c0.6,0,1,0.5,1,1v0.2c0,0.5,0.4,1,1,1l9.2,0.8c1.2,0.1,2.3,0.9,2.7,2.1l0.6,1.8
			c0.2,0.5-0.1,1.1-0.7,1.3c-0.1,0-0.2,0.1-0.3,0.1c-0.4,0-0.8-0.3-1-0.7l-0.6-1.8c-0.1-0.4-0.5-0.7-0.9-0.7l-0.6-0.1v2.3
			c0,0.6-0.5,1-1,1s-1-0.5-1-1v-2.4l-1.2-0.1l-1,2.9c-0.1,0.4-0.6,0.7-1,0.7c-0.1,0-0.2,0-0.3-0.1c-0.5-0.2-0.8-0.8-0.7-1.3l0.8-2.4
			l-3.2-0.3c-1.6-0.1-2.9-1.5-2.9-3.1v-0.2C93.8,98.9,94.2,98.4,94.8,98.4z"/>
	</g>
	<ellipse id="XMLID_21_" class="st6" cx="87.5" cy="77.1" rx="25" ry="25.5"/>
	<ellipse id="XMLID_20_" class="st1" cx="87.5" cy="78.1" rx="16.7" ry="22.4"/>
	<path id="XMLID_19_" class="st7" d="M115.6,58.8l-3.3,3.3c0.1-0.7,0.2-1.5,0.2-2.3c0-10.4-11.2-18.8-25-18.8s-25,8.4-25,18.8
		c0,0.8,0.1,1.5,0.2,2.3l-3.3-3.3c0,0-3.8,9.4-4.1,15.7c0,0.5,0.4,0.9,0.9,0.9h2.2v2.3c0,0.5,0.4,0.9,0.8,0.9
		c2.4,0.2,9.8,0.4,17.4-2c-0.5-0.2,11-5.4,11-5.4s10.4,5.2,11,5.4c7.5,2.4,14.9,2.1,17.4,2c0.5,0,0.8-0.4,0.8-0.9v-2.3h2.2
		c0.5,0,0.9-0.4,0.9-0.9C119.4,68.3,115.6,58.8,115.6,58.8z"/>
	<path id="XMLID_18_" class="st3" d="M112.2,49.2c3.5-2,4.8-4.8,5.2-6.5c0.2-0.7-0.5-1.2-1.1-1c-8,2.8-21-1.2-27.6,9.8
		c-0.6,1-2,1-2.6,0c-6.5-11.1-19.6-7-27.6-9.8c-0.6-0.2-1.3,0.3-1.1,1c0.4,1.7,1.7,4.5,5.2,6.5c0.6,0.3,0.7,1.2,0.2,1.7
		c-3.3,3.2-5.2,7.9-4.6,13c0.8,7.1,6.5,12.9,13.6,13.7c6.6,0.8,12.5-2.5,15.5-7.7c3,5.2,8.9,8.5,15.5,7.7
		c7.1-0.8,12.8-6.6,13.6-13.7c0.6-5.1-1.3-9.7-4.6-13C111.5,50.3,111.6,49.5,112.2,49.2z"/>
	<circle id="XMLID_17_" class="st5" cx="74" cy="62" r="10.4"/>
	<circle id="XMLID_16_" class="st0" cx="74" cy="62" r="7.3"/>
	<path id="XMLID_15_" class="st0" d="M88.2,77.9l2.1-5.5c0.2-0.6,0.1-1.3-0.4-1.7L89,69.7c-0.8-0.8-2.1-0.8-2.9,0l-0.9,0.9
		c-0.5,0.5-0.6,1.1-0.4,1.7l2.1,5.5C87.1,78.5,87.9,78.5,88.2,77.9z"/>
	<path id="XMLID_14_" class="st8" d="M74,67.2L74,67.2c-2.3,0-4.2-1.9-4.2-4.2v-2.1c0-2.3,1.9-4.2,4.2-4.2l0,0
		c2.3,0,4.2,1.9,4.2,4.2V63C78.1,65.3,76.3,67.2,74,67.2z"/>
	<circle id="XMLID_13_" class="st9" cx="74.5" cy="60.4" r="1.6"/>
	<circle id="XMLID_12_" class="st5" cx="101" cy="62" r="10.4"/>
	<circle id="XMLID_11_" class="st0" cx="101" cy="62" r="7.3"/>
	<path id="XMLID_3_" class="st8" d="M101,67.2L101,67.2c-2.3,0-4.2-1.9-4.2-4.2v-2.1c0-2.3,1.9-4.2,4.2-4.2l0,0
		c2.3,0,4.2,1.9,4.2,4.2V63C105.2,65.3,103.4,67.2,101,67.2z"/>
	<circle id="XMLID_24_" class="st9" cx="101.6" cy="60.4" r="1.6"/>
</g>
<text id="XMLID_25_" transform="matrix(1 0 0 1 51.4859 140.6455)" class="st0 st10 st11">Veilleur</text>
</svg>
