<?xml version="1.0" encoding="utf-8"?>
<!-- Generator: Adobe Illustrator 19.0.0, SVG Export Plug-In . SVG Version: 6.00 Build 0)  -->
<svg version="1.1" id="Capa_1" xmlns="http://www.w3.org/2000/svg" xmlns:xlink="http://www.w3.org/1999/xlink" x="0px" y="0px"
	 viewBox="-20 77 466 448" style="enable-background:new -20 77 466 448;" xml:space="preserve">
<style type="text/css">
	.st0{fill:#6D49D1;}
	.st1{opacity:0.1;}
	.st2{fill:#FFD366;}
	.st3{fill:#FFFFFF;}
	.st4{fill:#394049;}
	.st5{opacity:0.15;enable-background:new    ;}
	.st6{fill:#A89988;}
	.st7{opacity:5.000000e-02;enable-background:new    ;}
	.st8{fill:#EC8087;}
	.st9{fill:#F2DFA6;}
	.st10{fill:#F4AC3B;}
	.st11{opacity:0.1;enable-background:new    ;}
</style>
<g id="XMLID_1_">
	<path id="XMLID_25_" class="st0" d="M348.2,525H24.1c-8.8,0-16-7.2-16-16V92.9c0-8.8,7.2-16,16-16h324.1c8.8,0,16,7.2,16,16V509
		C364.2,517.8,357,525,348.2,525z"/>
	<rect id="XMLID_24_" x="6.9" y="384.2" class="st1" width="357.2" height="84.3"/>
	<rect id="XMLID_23_" x="316.6" y="76.9" class="st2" width="24.4" height="448.1"/>
	<path id="XMLID_22_" class="st3" d="M257,237.2H110.7c-5.8,0-10.6,4.7-10.6,10.6v42.5c0,5.8,4.7,10.6,10.6,10.6H257
		c5.8,0,10.6-4.7,10.6-10.6v-42.5C267.6,242,262.9,237.2,257,237.2z"/>
	<g id="XMLID_15_">
		<path id="XMLID_21_" class="st4" d="M19.3,146.1H-5.4c-8.1,0-14.7-6.6-14.7-14.7l0,0c0-8.1,6.6-14.7,14.7-14.7h24.7
			c8.1,0,14.7,6.6,14.7,14.7l0,0C34,139.5,27.4,146.1,19.3,146.1z"/>
		<path id="XMLID_20_" class="st4" d="M19.3,230.4H-5.4c-8.1,0-14.7-6.6-14.7-14.7l0,0c0-8.1,6.6-14.7,14.7-14.7h24.7
			c8.1,0,14.7,6.6,14.7,14.7l0,0C34,223.8,27.4,230.4,19.3,230.4z"/>
		<path id="XMLID_19_" class="st4" d="M19.3,314.7H-5.4c-8.1,0-14.7-6.6-14.7-14.7l0,0c0-8.1,6.6-14.7,14.7-14.7h24.7
			c8.1,0,14.7,6.6,14.7,14.7l0,0C34,308.1,27.4,314.7,19.3,314.7z"/>
		<path id="XMLID_18_" class="st4" d="M19.3,399H-5.4c-8.1,0-14.7-6.6-14.7-14.7l0,0c0-8.1,6.6-14.7,14.7-14.7h24.7
			c8.1,0,14.7,6.6,14.7,14.7l0,0C34,392.4,27.4,399,19.3,399z"/>
		<path id="XMLID_17_" class="st4" d="M19.3,483.3H-5.4c-8.1,0-14.7-6.6-14.7-14.7l0,0c0-8.1,6.6-14.7,14.7-14.7h24.7
			c8.1,0,14.7,6.6,14.7,14.7l0,0C34,476.7,27.4,483.3,19.3,483.3z"/>
		<path id="XMLID_16_" class="st4" d="M228.3,276.6h-89c-4.1,0-7.5-3.4-7.5-7.5s3.4-7.5,7.5-7.5h89c4.1,0,7.5,3.4,7.5,7.5
			S232.5,276.6,228.3,276.6z"/>
	</g>
	<path id="XMLID_14_" class="st5" d="M348.2,76.9h-29.1c8.8,0,16,7.2,16,16V509c0,8.8-7.2,16-16,16h29.1c8.8,0,16-7.2,16-16V92.9
		C364.2,84,357,76.9,348.2,76.9z"/>
	<polygon id="XMLID_13_" class="st6" points="200.4,398.7 355.8,243.9 412,300.3 256.6,455.1 	"/>
	<polygon id="XMLID_12_" class="st7" points="215.2,413.5 370.6,258.7 397.2,285.4 241.8,440.2 	"/>
	<path id="XMLID_11_" class="st8" d="M386.8,212.9l-31,30.9l56.2,56.4l31-30.9c4.2-4.2,4.2-11,0-15.2L402,213
		C397.8,208.8,391,208.7,386.8,212.9z"/>
	<g id="XMLID_7_" class="st1">
		<circle id="XMLID_10_" cx="393.9" cy="228.4" r="4.1"/>
		<circle id="XMLID_9_" cx="416.6" cy="252.8" r="4.1"/>
		<circle id="XMLID_8_" cx="388.5" cy="251.4" r="4.1"/>
	</g>
	<path id="XMLID_6_" class="st9" d="M200.4,398.7l-30.6,71.2c-4.2,9.8,5.7,19.7,15.5,15.6l71.3-30.4L200.4,398.7z"/>
	<path id="XMLID_5_" class="st4" d="M185.3,485.4l25.3-10.8l-30-30.1l-10.9,25.3C165.6,479.7,175.5,489.6,185.3,485.4z"/>
	<polygon id="XMLID_4_" class="st10" points="329.9,269.7 355.8,243.9 412,300.3 386.1,326.1 	"/>
	<polygon id="XMLID_3_" class="st11" points="339.9,259.6 345.7,253.9 401.9,310.3 396.1,316 	"/>
	<path id="XMLID_2_" class="st11" d="M183.4,486c0.6-0.2,1.2-0.4,1.8-0.6l25.3-10.8l46-19.6l129.5-129l25.9-25.8l31-30.9
		c4.2-4.2,4.2-11,0-15.2l-5.3-5.3c1.4,3.8,0.6,8.3-2.5,11.4l-31,30.9L378.4,317l-119,118.6c-6.9,6.9-15,12.4-24,16.2l-32.4,13.8
		l-25.3,10.8c-0.6,0.3-1.2,0.5-1.8,0.6c-2.4,0.6-4.7,0.4-6.8-0.3c0.2,0.9,0.4,1.8,0.8,2.6c0.1,0.2,0.2,0.4,0.3,0.6
		c0.1,0.2,0.2,0.4,0.4,0.7c0.2,0.3,0.4,0.6,0.6,0.9c0.1,0.1,0.2,0.2,0.2,0.3c0.3,0.4,0.6,0.8,1,1.1c0,0,0,0,0,0
		C175,485.7,179.2,487.1,183.4,486z"/>
</g>
</svg>
