<?xml version="1.0" encoding="utf-8"?>
<!-- Generator: Adobe Illustrator 19.0.0, SVG Export Plug-In . SVG Version: 6.00 Build 0)  -->
<svg version="1.1" id="Calque_1" xmlns="http://www.w3.org/2000/svg" xmlns:xlink="http://www.w3.org/1999/xlink" x="0px" y="0px"
	 viewBox="0 0 120 172" style="enable-background:new 0 0 120 172;" xml:space="preserve">
<style type="text/css">
	.st0{fill:#53389E;}
	.st1{fill:#6D49D1;}
	.st2{fill:#FFC900;}
	.st3{fill:#FFE15C;}
	.st4{fill:#FFD366;}
	.st5{opacity:0.1;}
	.st6{fill:#2D2D2C;}
	.st7{fill:#D8D8D8;}
</style>
<g id="XMLID_10_">
	<polygon id="XMLID_9_" class="st0" points="35.6,23.8 83.7,23.8 92.3,0 27,0 	"/>
	<path id="XMLID_8_" class="st1" d="M0,23.8l30.6,70.8c6.6-5.6,14.8-9.4,23.8-10.4L32.6,23.8L23.9,0L0,23.8z"/>
	<path id="XMLID_7_" class="st1" d="M95.4,0l-8.6,23.8L64.9,84.1c9,1,17.3,4.7,23.9,10.3l30.5-70.6L95.4,0z"/>
	<path id="XMLID_6_" class="st2" d="M59.8,171.1c23.3,0,42.2-18.9,42.2-42.2c0-11.5-4.6-22-12.1-29.6c-0.4-0.4-0.7-0.7-1.1-1.1
		c-0.4-0.4-0.8-0.7-1.1-1c-6.5-5.7-14.6-9.4-23.7-10.3c-0.5,0-1,0-1.5-0.1c-0.5,0-1-0.1-1.5-0.1c-0.3,0-0.7-0.1-1-0.1
		c-0.4,0-0.9,0.1-1.3,0.1c-0.5,0-1,0-1.5,0.1c-0.5,0-1,0-1.5,0.1c-9,0.9-17.2,4.7-23.6,10.5c-0.4,0.3-0.8,0.7-1.1,1
		c-0.4,0.4-0.8,0.7-1.1,1.1c-7.4,7.6-11.9,17.9-11.9,29.4C17.6,152.2,36.5,171.1,59.8,171.1z"/>
	<path id="XMLID_5_" class="st3" d="M59.8,164.5c19.7,0,35.7-16,35.7-35.7c0-9.8-3.9-18.6-10.3-25c-0.3-0.3-0.6-0.6-1-0.9
		c-0.3-0.3-0.6-0.6-1-0.9c-5.5-4.8-12.4-8-20-8.7c-0.4,0-0.9,0-1.3-0.1c-0.4,0-0.9-0.1-1.3-0.1c-0.3,0-0.6,0-0.9,0
		c-0.4,0-0.7,0-1.1,0.1c-0.4,0-0.9,0-1.3,0.1c-0.4,0-0.9,0-1.3,0.1c-7.6,0.8-14.5,4-20,8.8c-0.3,0.3-0.7,0.6-1,0.9
		c-0.3,0.3-0.6,0.6-0.9,0.9c-6.2,6.4-10.1,15.2-10.1,24.8C24.2,148.6,40.1,164.5,59.8,164.5z"/>
	<path id="XMLID_4_" class="st4" d="M59.8,159.7c17,0,30.8-13.8,30.8-30.8c0-8.4-3.4-16-8.9-21.6c-0.3-0.3-0.5-0.5-0.8-0.8
		c-0.3-0.3-0.6-0.5-0.8-0.8c-4.7-4.1-10.7-6.9-17.3-7.5c-0.4,0-0.7,0-1.1-0.1c-0.4,0-0.7,0-1.1-0.1c-0.2,0-0.5,0-0.7,0
		c-0.3,0-0.6,0-1,0c-0.4,0-0.7,0-1.1,0.1c-0.4,0-0.7,0-1.1,0.1c-6.6,0.7-12.5,3.5-17.2,7.6c-0.3,0.2-0.6,0.5-0.8,0.8
		c-0.3,0.3-0.5,0.5-0.8,0.8c-5.4,5.5-8.7,13.1-8.7,21.4C29,145.9,42.8,159.7,59.8,159.7z"/>
	<path id="XMLID_2_" class="st5" d="M36.5,149c5.6,6.5,14,10.7,23.3,10.7c17,0,30.8-13.8,30.8-30.8c0-5.6-1.5-10.8-4.1-15.3
		L36.5,149z"/>
</g>
<g id="XMLID_295_">
	<polygon id="XMLID_300_" class="st4" points="70.5,132.3 70.6,124.8 87.3,129.3 	"/>
	<path id="XMLID_299_" class="st1" d="M60.1,117.5L60.1,117.5L60.1,117.5c1.2-0.3,2.2-0.5,3.4-0.4c6.4,0.2,11.4,5.5,11.3,11.8
		c-0.2,6.4-5.5,11.5-11.9,11.3c-1.2,0-2.3-0.2-3.4-0.6l0,0l-1.4-0.6L32,128.3"/>
	<path id="XMLID_298_" class="st0" d="M61.2,128.6c-0.1,3.1-2.6,5.7-5.8,5.6c-0.6,0-1.1-0.2-1.7-0.2h0l-0.7-0.4l-12.7-5.2l12.7-4.9
		c0.3-0.2,0.6-0.3,0.9-0.4l0,0v0c0-0.1,1.1-0.2,1.7-0.2C58.8,122.9,61.3,125.5,61.2,128.6z"/>
	<circle id="XMLID_297_" class="st6" cx="69.3" cy="123.7" r="1.6"/>
	<circle id="XMLID_296_" class="st7" cx="69.7" cy="123.8" r="0.8"/>
</g>
</svg>
